<svg width="32" height="32" viewBox="0 0 32 32" fill="none" xmlns="http://www.w3.org/2000/svg">
<path d="M7.15418 4.19428L12.1028 9.14286H3.53132C3.70623 8.09219 4.1251 7.09718 4.75429 6.23776C5.38348 5.37833 6.20545 4.67843 7.15418 4.19428ZM13.8056 3.42857H10.2856C10.0685 3.42857 9.85132 3.44 9.63418 3.45143L15.3256 9.14286H19.5199L13.8056 3.42857ZM21.7142 3.42857H17.0513L22.7656 9.14286H28.4685C28.2007 7.54523 27.3751 6.0943 26.1384 5.04802C24.9017 4.00175 23.3341 3.42793 21.7142 3.42857ZM14.2649 22.4297L19.9792 19.2869C20.1586 19.1884 20.3083 19.0435 20.4126 18.8674C20.5168 18.6913 20.5718 18.4904 20.5718 18.2857C20.5718 18.081 20.5168 17.8801 20.4126 17.704C20.3083 17.5279 20.1586 17.383 19.9792 17.2846L14.2649 14.1417C14.0909 14.046 13.895 13.9973 13.6964 14.0004C13.4979 14.0035 13.3036 14.0582 13.1326 14.1593C12.9617 14.2603 12.82 14.4042 12.7216 14.5767C12.6232 14.7491 12.5714 14.9443 12.5713 15.1429V21.4286C12.5714 21.6271 12.6232 21.8223 12.7216 21.9948C12.82 22.1672 12.9617 22.3111 13.1326 22.4121C13.3036 22.5132 13.4979 22.5679 13.6964 22.571C13.895 22.5741 14.0909 22.5254 14.2649 22.4297ZM28.5713 11.4286V21.7143C28.5699 23.5325 27.847 25.2758 26.5613 26.5614C25.2757 27.8471 23.5324 28.57 21.7142 28.5714H10.2856C8.46743 28.57 6.72413 27.8471 5.43848 26.5614C4.15283 25.2758 3.42992 23.5325 3.42847 21.7143V11.4286H28.5713Z" fill="white"/>
</svg>
