<svg width="32" height="32" viewBox="0 0 32 32" fill="none" xmlns="http://www.w3.org/2000/svg">
<path fill-rule="evenodd" clip-rule="evenodd" d="M26.8857 12.9314C28.6778 11.1393 29.7833 8.68453 29.9246 5.8803C29.9485 5.40769 29.8271 4.91856 29.566 4.48562C29.2438 3.95022 28.8422 3.5214 28.4043 3.17686C28.496 3.47761 28.539 3.79819 28.5208 4.14356H28.52C28.52 4.15265 28.52 4.16091 28.5192 4.17H28.5183C28.3754 6.87756 27.3211 9.47193 25.3737 11.4194L11.3881 25.405C10.4453 26.3477 9.33238 27.098 8.10212 27.6309C6.33783 28.3957 4.8232 28.4995 4.28888 28.5361C4.20614 28.5418 4.14691 28.5458 4.1139 28.5505C4.10922 28.5504 4.10001 28.5508 4.08662 28.5515C3.97935 28.5565 3.60392 28.5744 3.14555 28.4348C3.48926 28.8727 3.9189 29.2743 4.4543 29.5965C4.8856 29.8568 5.36068 29.9807 5.89608 29.9526C8.60943 29.8097 11.0774 28.7389 12.9001 26.9162L26.8857 12.9314ZM27.5079 2.60511C27.4475 2.71417 27.4434 2.8505 27.5079 2.96783C27.6987 3.31154 27.7929 3.69656 27.7722 4.10555H27.7731L27.7706 4.13034H27.7714V4.13116C27.6376 6.66852 26.661 9.07121 24.8433 10.8897L10.8584 24.8754C9.9785 25.7553 8.94488 26.4527 7.80633 26.9459C6.12051 27.6764 4.63715 27.7681 4.19583 27.7954L4.19577 27.7954C4.13597 27.7991 4.09532 27.8016 4.07589 27.8044C3.44729 27.7927 3.16593 27.655 2.98117 27.5646C2.82667 27.4891 2.73973 27.4465 2.5738 27.5383C2.16399 26.7435 1.95991 25.9214 1.85911 25.2778C1.736 24.4928 2.01279 23.7501 2.59363 23.2998C3.25213 22.79 3.9974 22.3967 4.63938 22.1125C5.81098 21.5936 6.86773 20.8781 7.76006 19.9849L19.9544 7.7922C20.8476 6.89904 21.5631 5.84312 22.082 4.67152C22.3662 4.02954 22.7595 3.28427 23.2693 2.62577C23.7196 2.0441 24.4632 1.76731 25.2473 1.89125C25.8909 1.99122 26.713 2.1953 27.5079 2.60511ZM16.7435 30.2352C17.9778 30.2352 18.9785 29.2345 18.9785 28.0002C18.9785 26.7659 17.9778 25.7652 16.7435 25.7652C15.5092 25.7652 14.5085 26.7659 14.5085 28.0002C14.5085 29.2345 15.5092 30.2352 16.7435 30.2352ZM29.5441 15.196C30.4167 16.0687 30.4167 17.4835 29.5441 18.3562C28.6714 19.2289 27.2565 19.2289 26.3838 18.3562C25.5112 17.4835 25.5112 16.0687 26.3838 15.196C27.2565 14.3233 28.6714 14.3233 29.5441 15.196Z" fill="white"/>
</svg>
