<svg width="20" height="20" viewBox="0 0 20 20" fill="none" xmlns="http://www.w3.org/2000/svg">
<g id="Icons/User">
<path id="Vector" d="M14.8386 12.3643C14.9355 12.422 15.0553 12.4896 15.1908 12.5661C15.7848 12.9011 16.6828 13.4077 17.2979 14.0098C17.6826 14.3864 18.0482 14.8826 18.1146 15.4906C18.1852 16.1371 17.9033 16.7439 17.3373 17.283C16.3612 18.213 15.1897 18.9583 13.6744 18.9583H6.32587C4.81062 18.9583 3.63912 18.213 2.66292 17.283C2.09707 16.7439 1.81502 16.1371 1.88569 15.4906C1.95214 14.8826 2.31769 14.3864 2.70242 14.0098C3.31755 13.4077 4.21547 12.9011 4.80949 12.5661C4.94503 12.4896 5.06477 12.422 5.1617 12.3643C8.12341 10.6007 11.8769 10.6007 14.8386 12.3643Z" fill="white"/>
<path id="Vector_2" d="M5.62512 5.41669C5.62512 3.00044 7.58387 1.04169 10.0001 1.04169C12.4164 1.04169 14.3751 3.00044 14.3751 5.41669C14.3751 7.83293 12.4164 9.79169 10.0001 9.79169C7.58387 9.79169 5.62512 7.83293 5.62512 5.41669Z" fill="white"/>
</g>
</svg>
